<?xml version="1.0" encoding="UTF-8" standalone="no"?>
<!-- Created with Inkscape (http://www.inkscape.org/) -->

<svg
   width="512"
   height="512"
   viewBox="0 0 135.46666 135.46667"
   version="1.1"
   id="svg5"
   xml:space="preserve"
   inkscape:version="1.2.1 (9c6d41e, 2022-07-14)"
   sodipodi:docname="drawing.svg"
   xmlns:inkscape="http://www.inkscape.org/namespaces/inkscape"
   xmlns:sodipodi="http://sodipodi.sourceforge.net/DTD/sodipodi-0.dtd"
   xmlns="http://www.w3.org/2000/svg"
   xmlns:svg="http://www.w3.org/2000/svg"><sodipodi:namedview
     id="namedview7"
     pagecolor="#505050"
     bordercolor="#ffffff"
     borderopacity="1"
     inkscape:showpageshadow="0"
     inkscape:pageopacity="0"
     inkscape:pagecheckerboard="1"
     inkscape:deskcolor="#505050"
     inkscape:document-units="mm"
     showgrid="false"
     showguides="false"
     inkscape:zoom="0.73498501"
     inkscape:cx="28.572011"
     inkscape:cy="361.23186"
     inkscape:window-width="1440"
     inkscape:window-height="847"
     inkscape:window-x="0"
     inkscape:window-y="25"
     inkscape:window-maximized="1"
     inkscape:current-layer="layer1" /><defs
     id="defs2" /><g
     inkscape:label="Layer 1"
     inkscape:groupmode="layer"
     id="layer1"><rect
       style="fill:#ffffff;stroke-width:0.0349999"
       id="rect234"
       width="135.46666"
       height="135.46666"
       x="0"
       y="0"
       ry="0" /><path
       style="fill:#000000;stroke-width:0.264583"
       id="path360"
       d="" /><path
       style="fill:#000000;stroke-width:0.264583"
       id="path358"
       d="" /><path
       style="fill:#000000;stroke-width:0.264583"
       id="path356"
       d="" /><g
       id="g492"
       style="fill:#2256a7;fill-opacity:1"
       transform="translate(-1.5616264e-6,7.3446369)"><path
         style="fill:#2256a7;fill-opacity:1;stroke-width:0.213806"
         d="M 61.20175,78.763002 C 58.664831,78.300087 52.92953,77.303109 37.931672,74.71793 31.835952,73.66721 26.79248,72.751471 26.723962,72.682952 c -0.1163,-0.116297 -1.036701,-6.974244 -3.35947,-25.031539 -0.529425,-4.115765 -1.284735,-9.960581 -1.678475,-12.98848 -0.393739,-3.027899 -0.667681,-5.553482 -0.608755,-5.612406 0.05891,-0.05893 1.281365,-0.107137 2.716533,-0.107137 h 2.609397 l 0.132098,1.015578 c 0.07265,0.558568 0.32195,3.180365 0.553999,5.826213 1.134827,12.939358 3.04439,33.679506 3.106629,33.741745 0.03863,0.0386 1.690895,-0.129143 3.671771,-0.372753 11.324672,-1.392713 21.230628,0.487862 28.708251,5.450057 l 0.946576,0.628154 4.184767,-0.0072 4.184766,-0.0072 1.603545,-1.04424 c 4.089728,-2.663261 9.873073,-4.567198 15.928545,-5.243846 3.122245,-0.348884 8.19803,-0.258192 12.162311,0.217308 1.98554,0.238159 3.63627,0.405896 3.66831,0.372752 0.052,-0.05384 1.58493,-16.785468 2.99274,-32.665676 0.28669,-3.233816 0.57947,-6.336675 0.65063,-6.895243 l 0.12938,-1.015578 h 2.63989 c 1.45194,0 2.67842,0.07216 2.72551,0.160354 0.0471,0.08819 -0.28359,2.950523 -0.73485,6.360728 -0.45127,3.410205 -1.25352,9.567817 -1.78278,13.683582 -2.32106,18.04943 -3.04019,23.421514 -3.15002,23.531349 -0.0645,0.06448 -2.55748,0.538519 -5.53997,1.0534 -2.9825,0.514866 -11.05116,1.925571 -17.930367,3.134881 l -12.50765,2.198744 -4.703731,0.04335 c -3.771525,0.03476 -5.127463,-0.03397 -6.841792,-0.346788 z m 1.924254,-5.901921 c -2.814084,-1.959 -8.230829,-4.095725 -12.62343,-4.979523 -4.623954,-0.930344 -11.037592,-1.155476 -16.025063,-0.56251 -1.410288,0.167671 -2.623103,0.236828 -2.695144,0.153686 -0.07208,-0.08314 -0.338175,-2.508382 -0.591413,-5.389418 C 30.937716,59.202281 30.158568,50.495032 29.459517,42.733876 28.760467,34.972719 28.123259,27.74728 28.043485,26.677348 l -0.145027,-1.945332 0.672586,-0.134518 c 0.369925,-0.07398 1.432663,-0.197906 2.361638,-0.275379 l 1.689044,-0.140861 -0.109657,-1.200183 c -0.06028,-0.660102 -0.179468,-1.911404 -0.264778,-2.780672 l -0.15512,-1.58049 3.436877,0.129134 c 5.225994,0.196357 9.648477,0.9886 14.661694,2.626491 6.405912,2.092906 13.088728,6.156534 16.589901,10.08784 l 0.875164,0.98268 1.51084,-1.510841 C 76.387999,23.713865 87.70586,19.222467 99.878902,18.74732 l 3.399158,-0.13268 -0.14732,2.117639 c -0.081,1.164703 -0.1995,2.415834 -0.26328,2.78029 l -0.11595,0.662649 1.72526,0.14388 c 0.9489,0.07914 2.0283,0.204489 2.39866,0.278562 l 0.6734,0.134678 -0.13917,1.83827 c -0.12989,1.715761 -2.80697,31.682186 -3.40177,38.078379 -0.2664,2.864763 -0.27238,2.886251 -0.79809,2.86886 -0.29133,-0.0096 -1.81929,-0.142863 -3.395472,-0.296059 -3.516975,-0.341831 -10.172024,-0.185541 -13.059783,0.306702 -5.725938,0.976033 -10.745959,2.847391 -14.580527,5.435309 l -0.985401,0.66504 -3.496791,-0.01178 -3.496792,-0.01178 z M 66.439997,52.693084 V 34.750611 L 65.351648,33.559784 C 59.323367,26.963882 47.822025,21.97319 37.156888,21.325435 l -2.362366,-0.143481 0.105157,0.620178 c 0.05786,0.341098 0.298207,2.688749 0.53416,5.217004 2.229516,23.889958 2.816833,29.607695 3.056948,29.760251 0.143734,0.09132 0.408067,0.167512 0.587413,0.169312 0.756893,0.0076 5.897303,1.379214 8.867583,2.366135 4.00046,1.329215 10.126122,4.33801 12.918113,6.345101 1.107705,0.796301 2.791428,2.22999 3.741605,3.185972 0.950175,0.955984 1.751646,1.749739 1.781044,1.763899 0.0294,0.01416 0.05346,-8.048364 0.05346,-17.916722 z m 6.948694,13.853092 c 5.286688,-4.039565 12.975585,-7.383674 21.244443,-9.239783 1.336234,-0.299945 2.462139,-0.577982 2.502018,-0.617861 0.05544,-0.05545 2.439796,-24.80356 3.208668,-33.304097 0.0691,-0.764357 0.17256,-1.558111 0.22983,-1.763899 0.0913,-0.327917 -0.0628,-0.374039 -1.246574,-0.373175 -1.65104,0.0013 -6.304063,0.670081 -8.867316,1.274686 -7.833309,1.847674 -14.481855,5.323559 -19.464636,10.17618 l -1.989455,1.937489 V 52.62529 70.614865 l 1.550093,-1.544237 c 0.852551,-0.849329 2.127369,-1.985332 2.832929,-2.524452 z m -15.287127,0.323362 c -4.040499,-2.651309 -8.832007,-4.668853 -15.607837,-6.571936 -0.646759,-0.181651 -2.36588,-0.571078 -3.820257,-0.865393 -1.454376,-0.294314 -2.6709,-0.563866 -2.703377,-0.599 -0.03249,-0.03514 -0.74301,-7.272093 -1.578951,-16.082124 -0.835948,-8.810034 -1.543677,-16.031831 -1.572744,-16.048439 -0.02909,-0.01661 -0.56002,0.0091 -1.17991,0.05719 l -1.127069,0.08739 0.120566,0.994634 c 0.06626,0.547048 0.690808,7.392777 1.387782,15.212731 0.696966,7.819954 1.431022,15.926993 1.631234,18.015639 l 0.36401,3.797545 1.085719,-0.162843 c 2.153694,-0.32302 10.753671,-0.1675 13.379562,0.241956 3.19997,0.498972 6.682612,1.389724 9.086757,2.324112 1.05834,0.41133 2.020467,0.757591 2.13806,0.769468 0.117593,0.01187 -0.604002,-0.515037 -1.603545,-1.170924 z m 20.952985,-4.28e-4 c 5.919871,-2.040592 13.562096,-2.878538 20.305917,-2.226479 1.114024,0.107715 2.043684,0.177267 2.065884,0.15456 0.0222,-0.02271 0.67519,-7.112916 1.45106,-15.756022 0.77587,-8.643107 1.54936,-17.154547 1.71886,-18.914311 0.16951,-1.759765 0.28879,-3.214648 0.26505,-3.233072 -0.19352,-0.150256 -2.28812,-0.196917 -2.28812,-0.05099 0,0.103676 -0.14039,1.556796 -0.31198,3.229156 -0.1716,1.672361 -0.85682,8.813416 -1.52272,15.869013 -0.66589,7.055597 -1.306534,12.889146 -1.423634,12.963441 -0.1171,0.07429 -0.94723,0.252071 -1.84473,0.39506 -6.019106,0.958949 -14.979316,4.24413 -19.641262,7.201291 -1.560618,0.989932 -2.481723,1.708716 -1.874511,1.462775 0.235186,-0.09526 1.630271,-0.587755 3.100186,-1.094439 z"
         id="path374" /><text
         xml:space="preserve"
         style="font-size:17.8663px;font-family:Inter;-inkscape-font-specification:Inter;text-align:center;text-anchor:middle;fill:#2256a7;fill-opacity:1;stroke-width:0.19695"
         x="67.631805"
         y="101.93434"
         id="text430"><tspan
           sodipodi:role="line"
           style="fill:#2256a7;fill-opacity:1;stroke-width:0.196951"
           x="67.631805"
           y="101.93434"
           id="tspan432">Protobiblioteca</tspan><tspan
           sodipodi:role="line"
           style="fill:#2256a7;fill-opacity:1;stroke-width:0.196951"
           x="67.631805"
           y="124.26722"
           id="tspan436" /></text></g></g></svg>
