<?xml version="1.0" encoding="UTF-8" standalone="no"?>
<!-- Created with Inkscape (http://www.inkscape.org/) -->

<svg
   width="230"
   height="230"
   viewBox="0 0 60.854165 60.854166"
   version="1.1"
   id="svg5"
   xml:space="preserve"
   inkscape:version="1.2.1 (9c6d41e, 2022-07-14)"
   sodipodi:docname="empty.svg"
   xmlns:inkscape="http://www.inkscape.org/namespaces/inkscape"
   xmlns:sodipodi="http://sodipodi.sourceforge.net/DTD/sodipodi-0.dtd"
   xmlns="http://www.w3.org/2000/svg"
   xmlns:svg="http://www.w3.org/2000/svg"><sodipodi:namedview
     id="namedview7"
     pagecolor="#505050"
     bordercolor="#ffffff"
     borderopacity="1"
     inkscape:showpageshadow="0"
     inkscape:pageopacity="0"
     inkscape:pagecheckerboard="1"
     inkscape:deskcolor="#505050"
     inkscape:document-units="mm"
     showgrid="false"
     showguides="true"
     inkscape:zoom="2.2190778"
     inkscape:cx="184.98675"
     inkscape:cy="93.507312"
     inkscape:window-width="1920"
     inkscape:window-height="1027"
     inkscape:window-x="0"
     inkscape:window-y="25"
     inkscape:window-maximized="1"
     inkscape:current-layer="layer1"><sodipodi:guide
       position="-8.0140787,30.427083"
       orientation="0,1"
       id="guide304"
       inkscape:locked="false"
       inkscape:label=""
       inkscape:color="rgb(0,134,229)" /><sodipodi:guide
       position="30.427083,77.432918"
       orientation="-1,0"
       id="guide306"
       inkscape:locked="false"
       inkscape:label=""
       inkscape:color="rgb(0,134,229)" /></sodipodi:namedview><defs
     id="defs2" /><g
     inkscape:label="Layer 1"
     inkscape:groupmode="layer"
     id="layer1"><g
       id="g309"
       transform="translate(-4.0829995e-7,2.9807803)"><path
         style="fill:#ffffff;stroke-width:0.0862225"
         d="m 27.793052,39.676158 c -1.023077,-0.186684 -3.335981,-0.58874 -9.384246,-1.631279 -2.458253,-0.423729 -4.49216,-0.793024 -4.519792,-0.820656 -0.0469,-0.0469 -0.418076,-2.81254 -1.354791,-10.0946 -0.213504,-1.659786 -0.518105,-4.016857 -0.676887,-5.237932 -0.158786,-1.221076 -0.26926,-2.239581 -0.245496,-2.263344 0.02376,-0.02376 0.516743,-0.04321 1.09551,-0.04321 h 1.052306 l 0.05327,0.409557 c 0.0293,0.225255 0.129838,1.282563 0.223418,2.349569 0.457647,5.218122 1.227727,13.582109 1.252826,13.607208 0.01558,0.01558 0.681896,-0.05208 1.480734,-0.150322 4.566961,-0.561645 8.561788,0.196744 11.577327,2.197874 l 0.381731,0.253317 1.687618,-0.0029 1.68761,-0.0029 0.646672,-0.421116 c 1.649286,-1.074029 3.981564,-1.84184 6.423588,-2.114713 1.259122,-0.140699 3.306061,-0.104122 4.904758,0.08763 0.800719,0.09604 1.466419,0.16369 1.479337,0.150322 0.02099,-0.0217 0.639163,-6.769161 1.206899,-13.173259 0.115613,-1.304116 0.233686,-2.555424 0.262383,-2.78068 l 0.05218,-0.409557 h 1.064604 c 0.585533,0 1.080142,0.0291 1.099131,0.06467 0.019,0.03557 -0.114367,1.189873 -0.296349,2.565123 -0.181985,1.375253 -0.505513,3.858465 -0.718952,5.518252 -0.936025,7.278885 -1.226032,9.445314 -1.270326,9.489608 -0.02601,0.026 -1.031368,0.21717 -2.234132,0.424809 -1.202768,0.207635 -4.456659,0.776535 -7.230873,1.264222 l -5.044024,0.886699 -1.896901,0.01747 c -1.520961,0.01401 -2.067781,-0.01372 -2.759128,-0.139852 z m 0.776004,-2.380101 c -1.134851,-0.790017 -3.319289,-1.651704 -5.090716,-2.008116 -1.864726,-0.375186 -4.451188,-0.465974 -6.462512,-0.226845 -0.568737,0.06762 -1.057832,0.09551 -1.086884,0.06198 -0.02907,-0.03353 -0.136378,-1.011567 -0.238503,-2.173417 -0.102124,-1.161851 -0.416335,-4.67327 -0.698245,-7.803154 -0.28191,-3.129881 -0.53888,-6.043722 -0.571051,-6.475198 l -0.05849,-0.784506 0.271237,-0.05425 c 0.149182,-0.02985 0.577755,-0.07981 0.952391,-0.111054 l 0.681149,-0.05681 -0.04422,-0.484002 c -0.02431,-0.266209 -0.07237,-0.770826 -0.106776,-1.121382 l -0.06256,-0.637371 1.386007,0.05208 c 2.107511,0.07919 3.890992,0.398679 5.912699,1.059201 2.583346,0.844015 5.278362,2.482776 6.690301,4.068176 l 0.352929,0.396288 0.609286,-0.609283 c 2.912197,-2.912193 7.47641,-4.723462 12.385496,-4.91508 l 1.370798,-0.05351 -0.05941,0.853994 c -0.03268,0.469695 -0.08045,0.974247 -0.106172,1.121222 l -0.04676,0.267229 0.695756,0.05802 c 0.382662,0.0319 0.817958,0.08246 0.967319,0.112338 l 0.271563,0.05431 -0.05612,0.74133 c -0.05238,0.691924 -1.131984,12.776641 -1.371848,15.356069 -0.107437,1.155287 -0.109845,1.163953 -0.321853,1.15694 -0.117487,-0.0039 -0.733675,-0.05761 -1.369309,-0.119393 -1.418306,-0.137855 -4.102124,-0.07483 -5.266688,0.123684 -2.309127,0.393608 -4.333578,1.148283 -5.879964,2.191926 l -0.397389,0.268194 -1.410168,-0.0048 -1.410172,-0.0048 z m 1.336456,-8.133253 V 21.927049 L 29.466606,21.446818 C 27.035549,18.786854 22.397341,16.774233 18.096355,16.513007 l -0.952687,-0.05786 0.04241,0.2501 c 0.02333,0.137558 0.12026,1.084307 0.215414,2.103891 0.899109,9.634229 1.135959,11.940051 1.232791,12.001571 0.05797,0.03683 0.164564,0.06756 0.23689,0.06828 0.305236,0.0029 2.378236,0.5562 3.576077,0.954202 1.613286,0.536038 4.083613,1.749413 5.209555,2.558823 0.446711,0.321127 1.125713,0.899298 1.508898,1.284821 0.383184,0.385526 0.706396,0.705626 0.718252,0.711339 0.01186,0.0057 0.02154,-3.245708 0.02154,-7.225372 z m 2.802237,5.586609 c 2.131991,-1.629056 5.232731,-2.977652 8.567356,-3.726174 0.53887,-0.120961 0.99292,-0.233087 1.009002,-0.249169 0.02236,-0.02236 0.983913,-10.002663 1.293979,-13.430719 0.0279,-0.308244 0.06958,-0.628347 0.09268,-0.711336 0.0368,-0.132243 -0.02532,-0.150841 -0.502711,-0.150492 -0.665823,6.52e-4 -2.542272,0.270227 -3.575969,0.514048 -3.158978,0.745123 -5.840173,2.146861 -7.849604,4.103802 l -0.802298,0.781342 v 7.254751 7.25475 l 0.625114,-0.622755 c 0.343811,-0.342514 0.857914,-0.800633 1.142451,-1.018048 z m -6.164926,0.130405 c -1.62943,-1.069209 -3.561728,-1.882833 -6.294253,-2.650298 -0.260822,-0.07326 -0.954101,-0.230304 -1.540615,-0.348993 -0.586514,-0.118689 -1.077108,-0.227393 -1.090205,-0.241562 -0.0131,-0.01418 -0.299638,-2.932655 -0.636752,-6.485523 -0.337117,-3.552867 -0.622527,-6.465239 -0.634249,-6.471939 -0.01173,-0.0067 -0.225842,0.0037 -0.475828,0.02307 l -0.454519,0.03524 0.04862,0.40111 c 0.02675,0.220612 0.278586,2.981325 0.559658,6.134921 0.281069,3.153592 0.577096,6.422963 0.657836,7.26526 l 0.146797,1.531458 0.437844,-0.06567 c 0.868531,-0.130268 4.336689,-0.06755 5.395646,0.09758 1.290469,0.201222 2.694931,0.56044 3.664465,0.937256 0.4268,0.16588 0.814804,0.305517 0.862226,0.310307 0.04742,0.0048 -0.24358,-0.2077 -0.646672,-0.472204 z m 8.449827,-1.73e-4 c 2.387335,-0.822921 5.469255,-1.160843 8.188872,-0.897883 0.449259,0.04344 0.824165,0.07149 0.833124,0.06233 0.009,-0.0092 0.272283,-2.868462 0.585171,-6.354016 0.312888,-3.485551 0.624818,-6.918002 0.693178,-7.627673 0.06836,-0.709668 0.116457,-1.296387 0.106886,-1.303817 -0.07804,-0.06059 -0.922742,-0.07941 -0.922742,-0.02056 0,0.04181 -0.05662,0.627816 -0.125816,1.302239 -0.0692,0.674421 -0.345531,3.55423 -0.614074,6.399578 -0.268538,2.845348 -0.526894,5.197876 -0.574117,5.227837 -0.04722,0.02995 -0.381994,0.101652 -0.743934,0.159317 -2.427356,0.386723 -6.040785,1.711552 -7.920835,2.904104 -0.629357,0.399214 -1.000816,0.68908 -0.755942,0.5899 0.09484,-0.03842 0.657448,-0.237027 1.250229,-0.44136 z"
         id="path302" /></g></g></svg>
